<mxfile host="www.draw.io" modified="2020-02-07T20:41:49.934Z" agent="Mozilla/5.0 (Windows NT 10.0; Win64; x64) AppleWebKit/537.36 (KHTML, like Gecko) Chrome/79.0.3945.130 Safari/537.36" etag="B6jMYcBRhmQB-Q9DW8QU" version="12.6.6" type="github">
  <diagram id="xe06HkWHHzPFj2pmdTzM" name="Page-1">
    <mxGraphModel dx="1102" dy="614" grid="1" gridSize="10" guides="1" tooltips="1" connect="1" arrows="1" fold="1" page="1" pageScale="1" pageWidth="850" pageHeight="1100" math="0" shadow="0">
      <root>
        <mxCell id="0"/>
        <mxCell id="1" parent="0"/>
        <mxCell id="B_6eMQajW9eaSPTZJHrz-4" value="1.0&lt;br&gt;Backup database" style="whiteSpace=wrap;html=1;aspect=fixed;" parent="1" vertex="1">
          <mxGeometry x="400" y="80" width="80" height="80" as="geometry"/>
        </mxCell>
        <mxCell id="B_6eMQajW9eaSPTZJHrz-5" value="1.3&lt;br&gt;Execute mysqldump" style="whiteSpace=wrap;html=1;aspect=fixed;" parent="1" vertex="1">
          <mxGeometry x="520" y="320" width="80" height="80" as="geometry"/>
        </mxCell>
        <mxCell id="B_6eMQajW9eaSPTZJHrz-12" value="" style="endArrow=classic;html=1;exitX=0;exitY=1;exitDx=0;exitDy=0;entryX=0.5;entryY=0;entryDx=0;entryDy=0;" parent="1" source="B_6eMQajW9eaSPTZJHrz-4" target="w4JP9qPUWUAYp6p0DMhl-18" edge="1">
          <mxGeometry width="50" height="50" relative="1" as="geometry">
            <mxPoint x="400" y="230" as="sourcePoint"/>
            <mxPoint x="170" y="310" as="targetPoint"/>
          </mxGeometry>
        </mxCell>
        <mxCell id="B_6eMQajW9eaSPTZJHrz-13" value="" style="endArrow=classic;html=1;entryX=0.5;entryY=0;entryDx=0;entryDy=0;exitX=0.75;exitY=1;exitDx=0;exitDy=0;" parent="1" source="B_6eMQajW9eaSPTZJHrz-4" target="B_6eMQajW9eaSPTZJHrz-5" edge="1">
          <mxGeometry width="50" height="50" relative="1" as="geometry">
            <mxPoint x="570" y="230" as="sourcePoint"/>
            <mxPoint x="620" y="180" as="targetPoint"/>
          </mxGeometry>
        </mxCell>
        <mxCell id="B_6eMQajW9eaSPTZJHrz-15" value="" style="endArrow=classic;html=1;" parent="1" edge="1">
          <mxGeometry width="50" height="50" relative="1" as="geometry">
            <mxPoint x="220" y="240" as="sourcePoint"/>
            <mxPoint x="260" y="210" as="targetPoint"/>
            <Array as="points"/>
          </mxGeometry>
        </mxCell>
        <mxCell id="B_6eMQajW9eaSPTZJHrz-16" value="" style="endArrow=classic;html=1;" parent="1" edge="1">
          <mxGeometry width="50" height="50" relative="1" as="geometry">
            <mxPoint x="540" y="260" as="sourcePoint"/>
            <mxPoint x="520" y="230" as="targetPoint"/>
          </mxGeometry>
        </mxCell>
        <mxCell id="B_6eMQajW9eaSPTZJHrz-17" value="" style="endArrow=classic;html=1;exitX=1;exitY=1;exitDx=0;exitDy=0;" parent="1" edge="1" source="w4JP9qPUWUAYp6p0DMhl-12">
          <mxGeometry width="50" height="50" relative="1" as="geometry">
            <mxPoint x="500" y="250" as="sourcePoint"/>
            <mxPoint x="520" y="290" as="targetPoint"/>
          </mxGeometry>
        </mxCell>
        <mxCell id="B_6eMQajW9eaSPTZJHrz-20" value="Connection&lt;br&gt;status" style="text;html=1;strokeColor=none;fillColor=none;align=center;verticalAlign=middle;whiteSpace=wrap;rounded=0;" parent="1" vertex="1">
          <mxGeometry x="160" y="200" width="80" height="20" as="geometry"/>
        </mxCell>
        <mxCell id="B_6eMQajW9eaSPTZJHrz-21" value="SQL statement" style="text;html=1;strokeColor=none;fillColor=none;align=center;verticalAlign=middle;whiteSpace=wrap;rounded=0;" parent="1" vertex="1">
          <mxGeometry x="450" y="220" width="40" height="20" as="geometry"/>
        </mxCell>
        <mxCell id="B_6eMQajW9eaSPTZJHrz-22" value="Success/&lt;br&gt;failure" style="text;html=1;strokeColor=none;fillColor=none;align=center;verticalAlign=middle;whiteSpace=wrap;rounded=0;" parent="1" vertex="1">
          <mxGeometry x="550" y="240" width="50" height="20" as="geometry"/>
        </mxCell>
        <mxCell id="B_6eMQajW9eaSPTZJHrz-24" value="1.2&lt;br&gt;Prepare mysqldump statement" style="whiteSpace=wrap;html=1;aspect=fixed;" parent="1" vertex="1">
          <mxGeometry x="320" y="320" width="80" height="80" as="geometry"/>
        </mxCell>
        <mxCell id="B_6eMQajW9eaSPTZJHrz-25" value="" style="endArrow=classic;html=1;entryX=0.5;entryY=0;entryDx=0;entryDy=0;exitX=0.5;exitY=1;exitDx=0;exitDy=0;" parent="1" source="B_6eMQajW9eaSPTZJHrz-4" target="B_6eMQajW9eaSPTZJHrz-24" edge="1">
          <mxGeometry width="50" height="50" relative="1" as="geometry">
            <mxPoint x="380" y="300" as="sourcePoint"/>
            <mxPoint x="430" y="250" as="targetPoint"/>
          </mxGeometry>
        </mxCell>
        <mxCell id="B_6eMQajW9eaSPTZJHrz-26" value="" style="endArrow=classic;html=1;" parent="1" edge="1" source="w4JP9qPUWUAYp6p0DMhl-14">
          <mxGeometry width="50" height="50" relative="1" as="geometry">
            <mxPoint x="380" y="230" as="sourcePoint"/>
            <mxPoint x="360" y="280" as="targetPoint"/>
          </mxGeometry>
        </mxCell>
        <mxCell id="B_6eMQajW9eaSPTZJHrz-27" value="" style="endArrow=classic;html=1;exitX=1;exitY=0;exitDx=0;exitDy=0;" parent="1" edge="1" source="w4JP9qPUWUAYp6p0DMhl-13">
          <mxGeometry width="50" height="50" relative="1" as="geometry">
            <mxPoint x="390" y="280" as="sourcePoint"/>
            <mxPoint x="400" y="250" as="targetPoint"/>
          </mxGeometry>
        </mxCell>
        <mxCell id="B_6eMQajW9eaSPTZJHrz-28" value="Database connection" style="text;html=1;strokeColor=none;fillColor=none;align=center;verticalAlign=middle;whiteSpace=wrap;rounded=0;" parent="1" vertex="1">
          <mxGeometry x="340" y="200" width="60" height="20" as="geometry"/>
        </mxCell>
        <mxCell id="B_6eMQajW9eaSPTZJHrz-29" value="SQL statement" style="text;html=1;strokeColor=none;fillColor=none;align=center;verticalAlign=middle;whiteSpace=wrap;rounded=0;" parent="1" vertex="1">
          <mxGeometry x="395" y="265" width="60" height="20" as="geometry"/>
        </mxCell>
        <mxCell id="fCWVfcsJdZ0QtaRNggNa-1" value="" style="endArrow=classic;html=1;" parent="1" edge="1">
          <mxGeometry width="50" height="50" relative="1" as="geometry">
            <mxPoint x="270" y="260" as="sourcePoint"/>
            <mxPoint x="240" y="280" as="targetPoint"/>
          </mxGeometry>
        </mxCell>
        <mxCell id="fCWVfcsJdZ0QtaRNggNa-2" value="Db name and credentials" style="text;html=1;strokeColor=none;fillColor=none;align=center;verticalAlign=middle;whiteSpace=wrap;rounded=0;" parent="1" vertex="1">
          <mxGeometry x="290" y="250" width="50" height="20" as="geometry"/>
        </mxCell>
        <mxCell id="w4JP9qPUWUAYp6p0DMhl-1" value="1.4&lt;br&gt;Log failure" style="whiteSpace=wrap;html=1;aspect=fixed;" vertex="1" parent="1">
          <mxGeometry x="720" y="320" width="80" height="80" as="geometry"/>
        </mxCell>
        <mxCell id="w4JP9qPUWUAYp6p0DMhl-3" value="" style="endArrow=classic;html=1;entryX=0.5;entryY=0;entryDx=0;entryDy=0;exitX=1;exitY=1;exitDx=0;exitDy=0;" edge="1" parent="1" source="w4JP9qPUWUAYp6p0DMhl-19" target="w4JP9qPUWUAYp6p0DMhl-1">
          <mxGeometry width="50" height="50" relative="1" as="geometry">
            <mxPoint x="520" y="190" as="sourcePoint"/>
            <mxPoint x="690" y="170" as="targetPoint"/>
          </mxGeometry>
        </mxCell>
        <mxCell id="w4JP9qPUWUAYp6p0DMhl-4" value="" style="endArrow=classic;html=1;" edge="1" parent="1">
          <mxGeometry width="50" height="50" relative="1" as="geometry">
            <mxPoint x="640" y="230" as="sourcePoint"/>
            <mxPoint x="600" y="210" as="targetPoint"/>
          </mxGeometry>
        </mxCell>
        <mxCell id="w4JP9qPUWUAYp6p0DMhl-5" value="Failed attempt message" style="text;html=1;strokeColor=none;fillColor=none;align=center;verticalAlign=middle;whiteSpace=wrap;rounded=0;" vertex="1" parent="1">
          <mxGeometry x="620" y="190" width="70" height="20" as="geometry"/>
        </mxCell>
        <mxCell id="w4JP9qPUWUAYp6p0DMhl-9" value="" style="ellipse;whiteSpace=wrap;html=1;aspect=fixed;fillColor=#000000;" vertex="1" parent="1">
          <mxGeometry x="640" y="225" width="10" height="10" as="geometry"/>
        </mxCell>
        <mxCell id="w4JP9qPUWUAYp6p0DMhl-11" value="" style="ellipse;whiteSpace=wrap;html=1;aspect=fixed;fillColor=#000000;" vertex="1" parent="1">
          <mxGeometry x="540" y="260" width="10" height="10" as="geometry"/>
        </mxCell>
        <mxCell id="w4JP9qPUWUAYp6p0DMhl-12" value="" style="ellipse;whiteSpace=wrap;html=1;aspect=fixed;fillColor=#FFFFFF;" vertex="1" parent="1">
          <mxGeometry x="490" y="245" width="10" height="10" as="geometry"/>
        </mxCell>
        <mxCell id="w4JP9qPUWUAYp6p0DMhl-13" value="" style="ellipse;whiteSpace=wrap;html=1;aspect=fixed;fillColor=#FFFFFF;" vertex="1" parent="1">
          <mxGeometry x="380" y="280" width="10" height="10" as="geometry"/>
        </mxCell>
        <mxCell id="w4JP9qPUWUAYp6p0DMhl-14" value="" style="ellipse;whiteSpace=wrap;html=1;aspect=fixed;fillColor=#FFFFFF;" vertex="1" parent="1">
          <mxGeometry x="380" y="225" width="10" height="10" as="geometry"/>
        </mxCell>
        <mxCell id="w4JP9qPUWUAYp6p0DMhl-15" value="" style="endArrow=classic;html=1;" edge="1" parent="1" target="w4JP9qPUWUAYp6p0DMhl-14">
          <mxGeometry width="50" height="50" relative="1" as="geometry">
            <mxPoint x="380" y="230" as="sourcePoint"/>
            <mxPoint x="360" y="280" as="targetPoint"/>
          </mxGeometry>
        </mxCell>
        <mxCell id="w4JP9qPUWUAYp6p0DMhl-16" value="" style="ellipse;whiteSpace=wrap;html=1;aspect=fixed;fillColor=#FFFFFF;" vertex="1" parent="1">
          <mxGeometry x="270" y="250" width="10" height="10" as="geometry"/>
        </mxCell>
        <mxCell id="w4JP9qPUWUAYp6p0DMhl-17" value="" style="ellipse;whiteSpace=wrap;html=1;aspect=fixed;fillColor=#FFFFFF;" vertex="1" parent="1">
          <mxGeometry x="210" y="240" width="10" height="10" as="geometry"/>
        </mxCell>
        <mxCell id="w4JP9qPUWUAYp6p0DMhl-18" value="&lt;span style=&quot;white-space: normal&quot;&gt;1.1&lt;/span&gt;&lt;br style=&quot;white-space: normal&quot;&gt;&lt;span style=&quot;white-space: normal&quot;&gt;Create database connection&lt;/span&gt;" style="shape=process;whiteSpace=wrap;html=1;backgroundOutline=1;fillColor=#FFFFFF;" vertex="1" parent="1">
          <mxGeometry x="120" y="320" width="90" height="60" as="geometry"/>
        </mxCell>
        <mxCell id="w4JP9qPUWUAYp6p0DMhl-19" value="" style="rhombus;whiteSpace=wrap;html=1;fillColor=#FFFFFF;" vertex="1" parent="1">
          <mxGeometry x="480" y="150" width="20" height="20" as="geometry"/>
        </mxCell>
      </root>
    </mxGraphModel>
  </diagram>
</mxfile>
